<?xml version="1.0" standalone="no"?><!DOCTYPE svg PUBLIC "-//W3C//DTD SVG 1.1//EN" "http://www.w3.org/Graphics/SVG/1.1/DTD/svg11.dtd"><svg t="1595519202127" class="icon" viewBox="0 0 1024 1024" version="1.1" xmlns="http://www.w3.org/2000/svg" p-id="9660" xmlns:xlink="http://www.w3.org/1999/xlink" width="32" height="32"><defs><style type="text/css"></style></defs><path d="M509.44 51.2A458.24 458.24 0 1 0 967.68 509.44 458.752 458.752 0 0 0 509.44 51.2z m0 848.00512A389.76512 389.76512 0 1 1 899.20512 509.44 390.20544 390.20544 0 0 1 509.44 899.20512z" fill="#ffffff" p-id="9661"></path><path d="M507.19744 319.60576a34.23744 34.23744 0 0 0-34.23744 34.23744v133.89824l-180.66432 166.14912a34.23744 34.23744 0 0 0 46.35136 50.40128l185.76384-170.84416a52.8128 52.8128 0 0 0 17.024-38.77376V353.8432a34.23744 34.23744 0 0 0-34.23744-34.23744z" fill="#ffffff" p-id="9662"></path></svg>